<svg width="20" height="20" viewBox="0 0 15 15" fill="none" xmlns="http://www.w3.org/2000/svg">
<path d="M7.5 0C6.975 0 6.5625 0.4125 6.5625 0.9375C6.5625 1.4625 6.975 1.875 7.5 1.875C8.025 1.875 8.4375 1.4625 8.4375 0.9375C8.4375 0.4125 8.025 0 7.5 0ZM2.8125 1.875C2.2875 1.875 1.875 2.2875 1.875 2.8125C1.875 3.3375 2.2875 3.75 2.8125 3.75C3.3375 3.75 3.75 3.3375 3.75 2.8125C3.75 2.2875 3.3375 1.875 2.8125 1.875ZM12.1875 1.875C11.6625 1.875 11.25 2.2875 11.25 2.8125C11.25 3.3375 11.6625 3.75 12.1875 3.75C12.7125 3.75 13.125 3.3375 13.125 2.8125C13.125 2.2875 12.7125 1.875 12.1875 1.875ZM7.5 3.75C5.4375 3.75 3.75 5.4375 3.75 7.5C3.75 9.5625 5.4375 11.25 7.5 11.25C9.5625 11.25 11.25 9.5625 11.25 7.5C11.25 5.4375 9.5625 3.75 7.5 3.75ZM0.9375 6.5625C0.4125 6.5625 0 6.975 0 7.5C0 8.025 0.4125 8.4375 0.9375 8.4375C1.4625 8.4375 1.875 8.025 1.875 7.5C1.875 6.975 1.4625 6.5625 0.9375 6.5625ZM14.0625 6.5625C13.5375 6.5625 13.125 6.975 13.125 7.5C13.125 8.025 13.5375 8.4375 14.0625 8.4375C14.5875 8.4375 15 8.025 15 7.5C15 6.975 14.5875 6.5625 14.0625 6.5625ZM2.8125 11.25C2.2875 11.25 1.875 11.6625 1.875 12.1875C1.875 12.7125 2.2875 13.125 2.8125 13.125C3.3375 13.125 3.75 12.7125 3.75 12.1875C3.75 11.6625 3.3375 11.25 2.8125 11.25ZM12.1875 11.25C11.6625 11.25 11.25 11.6625 11.25 12.1875C11.25 12.7125 11.6625 13.125 12.1875 13.125C12.7125 13.125 13.125 12.7125 13.125 12.1875C13.125 11.6625 12.7125 11.25 12.1875 11.25ZM7.5 13.125C6.975 13.125 6.5625 13.5375 6.5625 14.0625C6.5625 14.5875 6.975 15 7.5 15C8.025 15 8.4375 14.5875 8.4375 14.0625C8.4375 13.5375 8.025 13.125 7.5 13.125Z" fill="black"/>
</svg>
